<?xml version="1.0" encoding="UTF-8" standalone="no"?>
<!-- Created with Inkscape (http://www.inkscape.org/) -->

<svg
   width="32"
   height="32"
   viewBox="0 0 8.4666666 8.4666666"
   version="1.1"
   id="svg5"
   inkscape:version="1.2.2 (732a01da63, 2022-12-09, custom)"
   sodipodi:docname="icon.svg"
   inkscape:export-filename="../8ee57868/icon-L.png"
   inkscape:export-xdpi="768"
   inkscape:export-ydpi="768"
   xmlns:inkscape="http://www.inkscape.org/namespaces/inkscape"
   xmlns:sodipodi="http://sodipodi.sourceforge.net/DTD/sodipodi-0.dtd"
   xmlns="http://www.w3.org/2000/svg"
   xmlns:svg="http://www.w3.org/2000/svg">
  <sodipodi:namedview
     id="namedview7"
     pagecolor="#ffffff"
     bordercolor="#000000"
     borderopacity="0.25"
     inkscape:showpageshadow="2"
     inkscape:pageopacity="0.0"
     inkscape:pagecheckerboard="0"
     inkscape:deskcolor="#d1d1d1"
     inkscape:document-units="px"
     showgrid="true"
     inkscape:zoom="7.0555555"
     inkscape:cx="82.771654"
     inkscape:cy="7.5826772"
     inkscape:window-width="2560"
     inkscape:window-height="960"
     inkscape:window-x="0"
     inkscape:window-y="0"
     inkscape:window-maximized="1"
     inkscape:current-layer="layer1"
     showguides="true">
    <inkscape:grid
       type="xygrid"
       id="grid182"
       empspacing="4" />
    <sodipodi:guide
       position="-24.60625,-3.96875"
       orientation="0,-1"
       id="guide1375"
       inkscape:locked="false" />
  </sodipodi:namedview>
  <defs
     id="defs2">
    <inkscape:path-effect
       effect="fillet_chamfer"
       id="path-effect1125"
       is_visible="true"
       lpeversion="1"
       nodesatellites_param="C,0,0,1,0,1,0,1 @ C,0,0,1,0,1,0,1 @ C,0,0,1,0,1,0,1 @ C,0,0,1,0,1,0,1"
       unit="px"
       method="auto"
       mode="F"
       radius="1"
       chamfer_steps="1"
       flexible="false"
       use_knot_distance="true"
       apply_no_radius="true"
       apply_with_radius="true"
       only_selected="false"
       hide_knots="false" />
    <inkscape:path-effect
       effect="fillet_chamfer"
       id="path-effect1119"
       is_visible="true"
       lpeversion="1"
       nodesatellites_param="C,0,0,1,0,1,0,1 @ C,0,0,1,0,1,0,1 @ C,0,0,1,0,1,0,1 @ C,0,0,1,0,1,0,1"
       unit="px"
       method="auto"
       mode="F"
       radius="1"
       chamfer_steps="1"
       flexible="false"
       use_knot_distance="true"
       apply_no_radius="true"
       apply_with_radius="true"
       only_selected="false"
       hide_knots="false" />
  </defs>
  <g
     inkscape:label="Layer 1"
     inkscape:groupmode="layer"
     id="layer1">
    <rect
       style="opacity:1;fill:#63452c;stroke:#000000;stroke-width:0"
       id="rect252"
       width="6.3499999"
       height="6.3499999"
       x="1.3229166"
       y="0.79374993" />
    <path
       style="opacity:1;fill:#865e3c;stroke:#000000;stroke-width:0"
       d="M 0.79375,1.3229166 1.3229166,0.79374994 V 7.1437498 L 0.79375,7.6729165 Z"
       id="path972" />
    <path
       style="opacity:1;fill:#cdab8f;stroke:#000000;stroke-width:0"
       d="M 1.0583333,1.3229166 1.3229166,1.0583332 H 7.4083332 V 7.1437498 L 7.1437499,7.4083332 H 1.0583333 Z"
       id="path1034" />
    <rect
       style="opacity:1;fill:#986a44;stroke:#000000;stroke-width:0"
       id="rect362"
       width="6.3499999"
       height="6.3499999"
       x="0.79374999"
       y="1.3229166" />
    <path
       style="opacity:1;fill:#cdab8f;stroke:#000000;stroke-width:0"
       d="M 1.3229166,1.8520833 H 6.6145833 V 7.1437499 H 1.3229166 Z"
       id="path1683" />
    <path
       id="path1678"
       style="opacity:1;fill:#63452c;stroke:#000000;stroke-width:0"
       d="M 1.3229167 1.8520833 L 1.3229167 7.1437499 L 6.6145833 7.1437499 L 6.6145833 1.8520833 L 1.3229167 1.8520833 z M 1.5875 2.1166667 L 6.35 2.1166667 L 6.35 6.8791666 L 1.5875 6.8791666 L 1.5875 2.1166667 z " />
    <path
       id="path1687"
       style="opacity:1;fill:#865e3c;stroke:#000000;stroke-width:0"
       d="M 2.9788143,2.3622086 2.3158057,3.0252172 V 5.3460057 L 2.9788143,6.0090144 3.641823,6.672023 H 4.9678401 L 5.6308491,6.0090144 V 5.843133 5.014243 L 5.2996031,4.6824803 H 4.9678401 V 3.5218277 l 0.165881,0.1663981 h 0.497128 L 4.9678401,3.0252172 4.3048311,2.3622086 Z M 3.1446957,2.6934545 H 4.1389502 L 4.4707131,3.0252172 H 3.641823 L 2.9788143,3.6882258 V 3.8541071 4.6824803 L 3.310577,5.014243 H 4.6365941 V 5.1801244 L 4.1389502,5.6772517 H 3.1446957 L 2.6475684,5.1801244 V 3.1910985 Z M 3.8077043,3.3564631 H 4.6365941 V 4.6824803 H 3.4759416 L 3.310577,4.5171158 V 3.8541071 Z M 4.9678401,5.014243 h 0.165881 l 0.165882,0.1658814 V 5.843133 L 4.8024761,6.3402603 H 3.8077043 L 3.4759416,6.0090144 h 0.8288895 l 0.663009,-0.6630087 z" />
    <path
       id="path1620"
       style="opacity:1;fill:#f8e45c;stroke:#000000;stroke-width:0"
       d="M 2.8618882,2.2349555 2.1988354,2.8980083 V 5.2186941 L 2.8618882,5.881747 H 4.1879945 L 4.8510473,5.2186941 V 2.8980083 L 4.1879945,2.2349555 Z M 3.0276513,2.5664822 H 4.0222309 L 4.5195206,3.063772 V 5.0529311 L 4.0222309,5.550221 H 3.0276513 L 2.5303615,5.0529311 V 3.063772 Z" />
    <path
       id="path1622"
       style="opacity:1;fill:#57e389;stroke:#000000;stroke-width:0"
       d="M 3.5249414,2.8980083 2.8618885,3.5610611 v 0.1657638 0.8288159 l 0.3315262,0.3315266 h 1.823396 l 0.165763,0.1657631 V 5.715984 L 4.685284,6.2132737 H 3.6907044 L 3.3591783,5.881747 H 2.8618885 L 3.5249414,6.5447999 H 4.8510477 L 5.5141005,5.881747 V 5.715984 4.8871674 L 5.1825737,4.5556408 H 3.3591783 L 3.1934147,4.3898776 V 3.7268249 L 3.6907044,3.229535 H 4.685284 L 5.0168107,3.5610611 H 5.5141005 L 4.8510477,2.8980083 Z" />
  </g>
</svg>
